<svg xmlns="http://www.w3.org/2000/svg" width="1200" height="200" viewBox="0 0 1200 200" role="img" aria-labelledby="title desc" shape-rendering="crispEdges">
  <title id="title">Seonghyun Eom — Software Engineer</title>
  <desc id="desc">A transparent banner with large type and a pixel-art scene of a cat mascot at a desk with an animated code monitor.</desc>

  <g font-family="ui-monospace, SFMono-Regular, Menlo, Consolas, monospace">
    <text x="38" y="42" fill="#8b949e" font-size="18">eomsteve.exe</text>
    <text x="36" y="104" fill="#f0f6fc" font-size="52" font-weight="800" letter-spacing="0.5">SEONGHYUN EOM</text>
    <text x="38" y="145" fill="#8b949e" font-size="23">software engineer</text>
    <rect x="38" y="169" width="84" height="7" fill="#3fb950"/>
    <rect x="130" y="169" width="28" height="7" fill="#a371f7"/>
    <rect x="166" y="169" width="12" height="7" fill="#f0f6fc"/>
  </g>

  <g transform="translate(815 20)">
    <rect x="0" y="140" width="300" height="20" fill="#30363d"/>
    <rect x="10" y="40" width="120" height="80" fill="none" stroke="#484f58" stroke-width="6"/>
    <rect x="18" y="48" width="104" height="56" fill="#161b22"/>
    <rect x="24" y="54" width="6" height="6" fill="#f85149"/>
    <rect x="34" y="54" width="6" height="6" fill="#d29922"/>
    <rect x="44" y="54" width="6" height="6" fill="#3fb950"/>
    <rect x="24" y="64" width="88" height="3" fill="#30363d"/>
    <rect x="24" y="72" width="30" height="5" fill="#3fb950"/>
    <rect x="58" y="72" width="14" height="5" fill="#58a6ff"/>
    <rect x="24" y="80" width="16" height="5" fill="#a371f7"/>
    <rect x="44" y="80" width="40" height="5" fill="#8b949e"/>
    <rect x="24" y="88" width="50" height="5" fill="#ffb454"/>
    <rect x="24" y="96" width="20" height="5" fill="#3fb950"/>
    <rect x="48" y="96" width="24" height="5" fill="#a371f7"/>
    <rect x="24" y="104" width="34" height="5" fill="#58a6ff"/>
    <rect x="60" y="104" width="5" height="5" fill="#f0f6fc">
      <animate attributeName="opacity" values="1;1;0;0;1" dur="1s" repeatCount="indefinite"/>
    </rect>
    <rect x="58" y="120" width="24" height="8" fill="#30363d"/>
    <rect x="48" y="128" width="44" height="6" fill="#30363d"/>

    <rect x="132" y="124" width="16" height="16" fill="#21262d"/>
    <rect x="135" y="114" width="10" height="12" fill="#30363d"/>
    <rect x="137" y="118" width="2" height="2" fill="#f0f6fc"/>
    <rect x="142" y="118" width="2" height="2" fill="#f0f6fc"/>
    <rect x="136" y="132" width="3" height="2" fill="#58a6ff"/>
    <rect x="143" y="132" width="3" height="2" fill="#58a6ff"/>

    <rect x="159" y="118" width="6" height="6" fill="#da7756"/>
    <rect x="160" y="120" width="2" height="2" fill="#21262d"/>
    <rect x="163" y="120" width="2" height="2" fill="#21262d"/>
    <rect x="154" y="124" width="16" height="10" fill="#da7756"/>
    <rect x="157" y="134" width="10" height="6" fill="#da7756"/>
    <rect x="160" y="126" width="4" height="8" fill="#fff3e0"/>
    <rect x="156" y="129" width="12" height="3" fill="#fff3e0"/>

    <g>
      <rect x="238" y="110" width="14" height="14" fill="#d98c4a"/>
      <rect x="248" y="96" width="12" height="14" fill="#d98c4a"/>
      <rect x="254" y="82" width="12" height="14" fill="#f0a868"/>
      <animateTransform attributeName="transform" type="rotate" values="0 240 124; 10 240 124; 0 240 124; -6 240 124; 0 240 124" dur="3s" repeatCount="indefinite"/>
    </g>

    <rect x="174" y="88" width="64" height="14" fill="#f0a868"/>
    <rect x="168" y="102" width="76" height="30" fill="#f0a868"/>

    <rect x="174" y="88" width="64" height="14" fill="#21262d"/>
    <rect x="168" y="102" width="76" height="30" fill="#21262d"/>

    <rect x="199" y="88" width="18" height="6" fill="#f0a868"/>

    <rect x="203" y="104" width="6" height="20" fill="#ffd166"/>
    <rect x="193" y="111" width="26" height="6" fill="#ffd166"/>
    <rect x="197" y="107" width="18" height="4" fill="#ffd166"/>
    <rect x="197" y="117" width="18" height="4" fill="#ffd166"/>

    <rect x="176" y="118" width="14" height="18" fill="#f0a868"/>
    <rect x="218" y="118" width="14" height="18" fill="#f0a868"/>
    <rect x="174" y="130" width="18" height="14" fill="#f0f6fc"/>
    <rect x="216" y="130" width="18" height="14" fill="#f0f6fc"/>

    <rect x="175" y="36" width="24" height="8" fill="#f0a868"/>
    <rect x="179" y="28" width="16" height="8" fill="#f0a868"/>
    <rect x="183" y="20" width="8" height="8" fill="#f0a868"/>
    <rect x="180" y="32" width="10" height="10" fill="#ff8fab"/>

    <rect x="221" y="36" width="24" height="8" fill="#f0a868"/>
    <rect x="225" y="28" width="16" height="8" fill="#f0a868"/>
    <rect x="229" y="20" width="8" height="8" fill="#f0a868"/>
    <rect x="228" y="32" width="10" height="10" fill="#ff8fab"/>

    <rect x="174" y="44" width="72" height="44" fill="#f0a868"/>
    <rect x="174" y="44" width="72" height="8" fill="#ffcb96"/>
    <rect x="180" y="50" width="8" height="4" fill="#c97b3d"/>
    <rect x="232" y="50" width="8" height="4" fill="#c97b3d"/>
    <rect x="188" y="68" width="44" height="18" fill="#fff3e0"/>
    <rect x="188" y="58" width="12" height="12" fill="#0d1117"/>
    <rect x="220" y="58" width="12" height="12" fill="#0d1117"/>
    <rect x="191" y="60" width="4" height="4" fill="#f0f6fc"/>
    <rect x="223" y="60" width="4" height="4" fill="#f0f6fc"/>
    <rect x="178" y="76" width="9" height="7" fill="#ff8fab"/>
    <rect x="233" y="76" width="9" height="7" fill="#ff8fab"/>
    <rect x="206" y="74" width="8" height="6" fill="#ff8fab"/>
    <rect x="202" y="82" width="6" height="4" fill="#c97b3d"/>
    <rect x="212" y="82" width="6" height="4" fill="#c97b3d"/>
    <rect x="152" y="71" width="28" height="3" fill="#8b949e"/>
    <rect x="152" y="79" width="28" height="3" fill="#8b949e"/>
    <rect x="240" y="71" width="28" height="3" fill="#8b949e"/>
    <rect x="240" y="79" width="28" height="3" fill="#8b949e"/>
  </g>
</svg>
